<?xml version="1.0" standalone="no"?>
<!DOCTYPE svg PUBLIC "-//W3C//DTD SVG 20010904//EN"
 "http://www.w3.org/TR/2001/REC-SVG-20010904/DTD/svg10.dtd">
<svg version="1.0" xmlns="http://www.w3.org/2000/svg"
 width="1920.000000pt" height="1080.000000pt" viewBox="0 0 228.66 39.08"
 preserveAspectRatio="xMidYMid meet">

<g transform="translate(0.000000,1080.000000) scale(0.100000,-0.100000)"
fill="#000000" stroke="none">
<path d="M6060 6115 l0 -305 65 0 65 0 0 125 0 125 145 0 145 0 0 -125 0 -125
65 0 65 0 0 305 0 305 -65 0 -65 0 0 -120 0 -120 -145 0 -145 0 0 120 0 120
-65 0 -65 0 0 -305z"/>
<path d="M6673 6408 c2 -7 57 -93 121 -192 l116 -179 0 -113 0 -114 70 0 70 0
0 110 0 109 118 183 c65 101 121 189 126 196 5 9 -11 12 -71 12 l-78 0 -78
-130 c-43 -71 -81 -130 -85 -130 -4 0 -42 59 -85 130 l-79 130 -75 0 c-56 0
-74 -3 -70 -12z"/>
<path d="M7350 6115 l0 -306 246 3 246 3 29 33 29 32 0 270 0 270 -65 0 -65 0
-2 -242 -3 -243 -142 -3 -143 -3 0 246 0 245 -65 0 -65 0 0 -305z"/>
<path d="M8020 6115 l0 -305 65 0 65 0 0 245 0 246 143 -3 142 -3 3 -242 2
-243 65 0 65 0 0 268 c0 231 -2 271 -16 291 -32 45 -67 51 -309 51 l-225 0 0
-305z"/>
<path d="M8690 6116 l0 -306 231 0 c252 0 285 6 308 56 15 33 15 464 0 497
-22 49 -37 52 -296 55 l-243 3 0 -305z m420 -1 l0 -185 -140 0 -140 0 0 185 0
185 140 0 140 0 0 -185z"/>
<path d="M9420 6402 c-58 -29 -60 -40 -60 -329 l0 -263 65 0 65 0 0 95 0 95
145 0 145 0 0 -95 0 -95 65 0 65 0 0 305 0 305 -227 0 c-197 0 -233 -2 -263
-18z m358 -189 l-3 -88 -142 -3 -143 -3 0 84 c0 46 3 87 7 90 3 4 69 7 145 7
l139 0 -3 -87z"/>
<path d="M10040 6115 l0 -305 70 0 70 0 0 305 0 305 -70 0 -70 0 0 -305z"/>
<path d="M7516 5492 c-13 -21 -376 -825 -374 -827 2 -2 79 39 172 90 l170 94
90 258 c55 155 92 248 94 233 1 -14 -6 -126 -16 -250 -11 -124 -19 -226 -18
-226 0 -1 61 -5 133 -9 l133 -7 -5 29 c-2 15 -7 162 -11 326 l-6 297 -179 0
c-98 0 -180 -3 -183 -8z"/>
<path d="M9091 5463 c-5 -21 -18 -77 -27 -125 l-18 -88 -47 0 -48 0 -11 -57
c-6 -32 -16 -74 -21 -93 -13 -50 -13 -50 36 -50 25 0 45 -2 45 -5 0 -2 -20
-98 -44 -212 -65 -305 -67 -321 -56 -365 16 -56 51 -71 180 -75 58 -2 125 0
149 4 l45 8 17 80 c26 115 26 113 -23 117 -36 2 -44 7 -46 25 -2 13 16 113 39
223 l42 200 53 0 c47 0 54 3 59 23 2 12 11 53 20 90 8 38 15 72 15 78 0 5 -22
9 -50 9 -27 0 -50 4 -50 9 0 12 39 201 46 224 5 16 -6 17 -145 17 l-150 0 -10
-37z"/>
<path d="M10385 5458 c-30 -133 -215 -1016 -215 -1030 0 -17 17 -18 319 -18
l319 0 22 98 c12 53 24 105 26 115 5 16 -8 17 -180 17 l-185 0 6 33 c4 17 14
66 22 107 l16 75 167 3 166 2 16 73 c9 39 19 87 22 105 l7 32 -167 0 c-155 0
-167 1 -162 18 2 9 10 44 16 77 6 33 14 68 16 78 5 15 22 17 183 17 l178 0 22
100 c11 56 21 105 21 110 0 6 -120 10 -315 10 l-315 0 -5 -22z"/>
<path d="M9760 5256 c-81 -19 -126 -42 -175 -87 -76 -70 -116 -157 -156 -333
-70 -313 -9 -433 230 -453 183 -15 345 58 420 191 78 137 132 426 100 539 -15
54 -71 112 -127 132 -62 22 -221 28 -292 11z m111 -186 c27 -15 25 -82 -6
-238 -34 -165 -61 -233 -98 -246 -19 -7 -33 -7 -45 1 -25 16 -20 124 12 268
33 144 57 202 88 215 30 12 26 12 49 0z"/>
<path d="M12050 5259 c-69 -13 -164 -65 -205 -110 -53 -59 -101 -167 -130
-294 -47 -206 -44 -310 12 -384 77 -100 319 -120 481 -38 80 40 138 120 176
245 l8 23 -137 -3 -136 -3 -19 -55 c-21 -62 -43 -82 -84 -78 -45 5 -52 25 -37
114 7 42 15 83 18 91 4 10 48 13 212 13 l208 0 18 97 c46 242 8 344 -143 379
-63 15 -173 16 -242 3z m124 -241 c0 -38 -3 -70 -6 -73 -3 -3 -35 -5 -70 -3
l-65 3 12 47 c6 25 19 58 29 73 15 22 23 26 59 23 l42 -3 -1 -67z"/>
<path d="M13022 5255 c-44 -19 -77 -46 -114 -92 l-31 -38 7 40 c4 22 10 50 13
63 l5 22 -145 0 c-130 0 -146 -2 -151 -17 -3 -10 -41 -191 -86 -403 -45 -212
-84 -395 -87 -407 l-5 -23 150 0 c135 0 151 2 156 18 2 9 25 116 51 237 25
121 56 239 67 263 28 58 65 77 155 76 57 0 74 4 77 16 3 8 14 60 25 115 12 55
23 110 26 123 5 20 2 22 -37 22 -24 -1 -58 -7 -76 -15z"/>
<path d="M8145 5238 c-2 -7 -36 -166 -75 -352 -49 -230 -70 -352 -67 -378 12
-87 64 -123 177 -122 89 0 146 22 204 79 l38 38 -7 -34 c-3 -19 -9 -42 -12
-52 -4 -16 6 -17 143 -15 l148 3 88 415 c48 228 88 418 88 423 0 4 -67 7 -150
7 -82 0 -150 -2 -150 -3 0 -34 -125 -579 -138 -601 -33 -57 -120 -42 -107 18
3 12 30 140 60 286 31 146 58 273 61 283 5 16 -6 17 -146 17 -112 0 -152 -3
-155 -12z"/>
<path d="M11034 4833 c4 -230 11 -421 15 -426 4 -4 85 -6 180 -5 l172 3 75
165 c42 91 129 281 194 423 l118 257 -153 0 c-152 0 -153 0 -159 -24 -10 -40
-188 -557 -191 -554 -2 2 8 116 21 253 13 138 24 267 24 288 l0 37 -151 0
-152 0 7 -417z"/>
<path d="M7495 4731 l-370 -96 -17 -35 c-9 -19 -33 -70 -52 -113 l-36 -78 151
3 151 3 33 90 32 90 117 3 116 3 0 -96 0 -95 147 0 146 0 -6 128 c-4 70 -7
164 -7 210 0 72 -2 82 -17 81 -10 -1 -184 -45 -388 -98z"/>
</g>
</svg>
